# xmcd
#
# Track frame offsets: 
#        182
#        20585
#        38652
#        58457
#        79222
#        99695
#        118005
#        139535
#        164665
#        192397
#        216325
#        239657
#        257767
#        274615
#        292710
#
# Disc length: 4172 seconds
#
# Revision: 3
# Processed by: cddbd v1.5.2PL0 Copyright (c) Steve Scherf et al.
# Submitted via: ExactAudioCopy v1.3
#
DISCID=e4104a0f
DTITLE=L.T.D. - Classics Vol. 27
DYEAR=1988
DGENRE=Pop
TTITLE0=Where Did We Go Wrong
TTITLE1=(Won't Cha) Stay With Me
TTITLE2=Share My Love
TTITLE3=Love Ballad
TTITLE4=Stranger
TTITLE5=Make Someone Smile Today
TTITLE6=(Every Time I Turn Around) Back In Love Again
TTITLE7=Dance 'N' Sing 'N'
TTITLE8=Kickin' Back
TTITLE9=We Party Hearty
TTITLE10=Love To The World
TTITLE11=Holding On (When Love Is Gone)
TTITLE12=Lady Love
TTITLE13=Shine On
TTITLE14=April Love
EXTD=
EXTT0=
EXTT1=
EXTT2=
EXTT3=
EXTT4=
EXTT5=
EXTT6=
EXTT7=
EXTT8=
EXTT9=
EXTT10=
EXTT11=
EXTT12=
EXTT13=
EXTT14=
PLAYORDER=
